<?xml version="1.0" encoding="UTF-8"?><svg id="Ebene_1" xmlns="http://www.w3.org/2000/svg" viewBox="0 0 279.1 980.9"><defs><style>.cls-1{fill:#e52421;}</style></defs><path class="cls-1" d="M155.58,936.91c1.01,8.34,1.26,26.93-3.53,33.51-9.22,12.68-27.84,13.88-36.41,3.48-3.47-4.21-2.34-9.61-2.07-14.54.56-10.22.09-20.02,1.86-29.88.94-5.22,3.87-10.61,4.18-15.79l1.1-18.33-1.62-17.14c-.47-4.97,3.31-9.95,1.27-14.81-5.68-13.5-3.74-28.1-1.98-42.23l1.82-14.6c1.59-12.79,2.19-25.82,1.3-38.86-.47-6.93.09-14.59-1.17-21.23-2.28-12.06-4.7-23.03-4.18-35.73.44-10.75,2.43-22.4.21-32.86-1.6-7.55-1.23-12.57-.22-19.81,2.55-18.43-1.01-44.61.36-51.82l1.78-9.34c1.63-8.53.11-17.51.29-26.16s.94-18.06-.3-26.85c-.78-5.55-.42-11.04-.86-16.29-.94-11.3-2.36-20.6.98-31.88,1.82-6.15-.52-14.4.69-20.99,1.9-10.31,2.11-19.94,1.99-30.48l-.61-54.65-2.09-23.19c-.86-9.57-1.86-18.92-1.21-28.43.54-7.98,1.16-15.79.29-23.66l-2.35-21.14-1.37-12.03c-1.08-9.52-1.29-19.64-.26-29.12l1.59-14.66c.49-4.53,1.26-11.83-2.19-14.74-7.52.75-20.48-3.83-21.59-3.88l-25.76-1.05c-7.65-.31-15.13-6.24-22.73-6.94s-11.98-2.63-17.56-7.44c-4.35-3.75-6.14-7.12-8.07-13.6l-5.36-18.02c-2.02-6.8-.96-13.38-2.25-20.56-.67-3.72,1.04-8.17,1.41-11.96l1.92-19.52c.98-9.92.97-19.92.54-30.12-.17-3.95-6.5-6.42-9.29-7.85-4.83-2.48-4.81-8.17-3.05-12.75,4.46-11.66,12.91-20.44,23.06-27.64,1.73-1.23,4.06-3.85,5.67-5.35l10.14-.31c3.72,4.6,8.19,7.29,13.68,9.74,19.13,8.57,11.54,7.98,20.41,19.12,4.09,5.14,6.66,13.59.62,18.41-6.73,5.37-19.38,5.34-19.49,12.79l-.41,26.34c-.15,9.97-2.27,20.31.38,30.06l5.28,19.41c3.11,11.43,20.47,18.52,33.49,12.77,3.97-1.75,9.68-3.5,11.91-7.09,3.59-5.79,1.85-12.59,3.02-18.87l6.82-36.35c-.02.11-2.32-39.31-2.49-43.72l-.7-18.91-15.47-6.61c-6.57-2.81-5.14-11.89-2.46-16.57,8.06-14.07,16.65-13.93,21.26-20.69S126.46.84,135.58,0c10.4,5.55,20.39,12.44,29.73,19.67,4.58,3.54,7.22,8.58,10.12,13.37,2.7,4.47,3.37,8.7,2.27,14.23-2.77,13.88-23.54,5.11-21.98,24.32,1.15,14.24-2.59,18.68,4.23,30.53,3.65,6.35,1.95,13.12,2.07,19.94.12,6.61,2.99,13.42,3.57,20.13,1.75,20.17-1.36,20.42,6.23,41.33l9.92,1.91,9.44,1.92c3.36.68,8.03.6,11.75.65,6.17-5.23,6.08-12.23,7.07-19.59,1.22-9.06,12.64-16.1,9.35-44.37l-1.52-13.08c-1.03-8.88-.41-22.69-3-24.06-7.79-1.12-15.68-5.45-17.44-13.95-1.53-7.44,12.78-17.93,18.96-21.74,9.24-5.7,3.28-8.54,14.34-17.14,5.14-4,12.39-3.23,15.77,3.01,10.5,19.35,14.22,11.23,31.39,31.83,1.34,1.6,1.66,5.97.65,8.35-.85,2.02-3.63,4.23-6.32,5.67-7.1,3.79-10.81-1.32-15.26,5.89,3.32,18.29,2.78,37.3.18,55.77-.52,3.72-.68,7.96-.85,11.86l-1.08,24.36c-.9,20.35-9.69,26.15-27.72,29.96-3.67.78-7.36,1.3-11.33,1.87l-15.1,2.17c-1.66.24-4.92,1.43-6.89,1.95l-7.44,1.96c-4.31,1.14-8.56,1.46-13.1,2.11s-8.65,1.81-13.23,1.51c-3-.2-6.12.28-6.59,3.75l-2.78,20.61c-3.18,23.52-1.16,54.31,1.89,78.12.98,7.68.67,16.33-.08,23.85-1.71,17.06,6.35,3.69.7,27-.74,3.07,1.55,6.99,1.68,10.05.51,12.22.4,24.02.1,36.31-.22,8.91,3.25,17.32,2.87,25.8l-1.02,22.82c-.7,15.69,4.18,40.13,2.12,57.85l-1.66,14.24c-1.09,9.38.36,18.87-.74,28.24-.52,4.46-1.53,8.64-1.47,13.21.14,10.95-4.22,36.42-3.5,42.36l1.73,14.38-1.85,29.43c-.93,14.74-1.51,54.31,2.23,67.14,4.53,15.54.93,29.98,1.04,45.54.11,15.59,2.19,30.53.73,46.48-1.49,16.35-.3,37.12,2.35,53.22,1.85,11.23-2.41,14.15-4.12,29.31-.94,8.32.59,16.52,1.59,24.84Z"/></svg>