<?xml version="1.0" encoding="UTF-8"?><svg id="Ebene_1" xmlns="http://www.w3.org/2000/svg" viewBox="0 0 1975.15 1833.9"><defs><style>.cls-1{fill:#e52421;}</style></defs><path class="cls-1" d="M261.54,1825.82c-7.4-2.95-12.38-1.68-19.2-.54-8.9,1.49-19.07.31-28.1.75-1.73.08-5.06-1.7-6.6-1.77-14.78-.65-30.99-1.08-45.83.34-8.56.82-15.45.69-23.74-.13-6.71-.67-37.41-1.73-42.64-.24l-17.57,5.01c-12.61,3.6-36.36-3.14-35.85-3.13l-32.82-.42c-6.05-.08-9.05-9.85-5.47-14.2,2.14-2.6,6.23-5.59,9.62-5.67,10.67-.24,21.97-.4,32.08.3-1.74-.12,10.58,3.22,18.65,3.84,15.57,1.2,12.56-6.67,45.59-6.68h10.1c.52-10.91-4.73-7.76-.19-23.27,9.2-31.42.47-16.17,2.35-42.25.55-7.68-1.24-14.74-1.6-22.32-.86-17.67-.28-35-.2-52.69l.09-19.26-1.91-18.34c-1.93-18.51.02-36.81-.02-55.4l-.05-26.67,3.34-18.4c2.91-16.04,2.34-31.99,4.26-48.44.65-5.54-1.39-11.59-1.22-17.22.45-15.02.85-29.48-1.41-44.21-.64-4.2-1.38-8.3-1.56-12.58l-1.24-29.49-4.31-21.27-1.05-50.88-3.17-26.02-.73-49.39c-.26-17.4.02-35.85,2.22-53.04l1.85-14.46c.71-5.52,1.81-11.4,2.14-17.05.91-15.43.43-30.78.32-46.32-.16-1.96-5.04-4.17-7.17-4.16l-47.23.19-10.35,1.67-40.08-.34c-2.15-.02-6.28-1.74-8.13-2.17-5.03-1.16-5.22-7.79-4.32-11.84.7-3.18,5.31-7,10.01-7.06l47.66-.62,67.84.04,6.15,1.66,24.27.16c4.23.03,8.27.86,12.45,1.59,7.99,1.39,16.99-.82,24.75,1.17,5.86,1.5,9.7,1.08,15.59-.14l10.21-2.12,8.81-.99c3.6-.41,6.62-1.77,10.3-1.52,4.44.29,8.18-1.04,12.43-1.44,11.74-1.12,25.38-.75,36.93-.24,3.83.17,10.4,6.06,20.97,2.24,3.39-1.23,8.71-.08,12.25-1.11,2.95-.85,7.25-2.9,10.29-3.05,17.58-.84,36.16-.64,54-.23-1.57-.04,16.23,4.66,14.22,3.87l31.39,12.33c16.99,6.67,21.27,17.04,29.39,17.94,22.34,2.47,28.01.23,41.08,19.21,4.57,6.64,12.71,10.09,18.59,15.57,9.26,8.63,17.81,16.96,26.49,26.31,3.08,3.32,6.52,9.45,8.07,13.58l9.27,24.78c3.6,9.63,6.73,18.89,7.22,29.39.2,4.32-2.35,9.02-2.72,13.1-1.63,17.71-.53,32.65-4.59,47.7-4.45,16.5,2.8,28.38-14.07,47.53l-13.33,15.14c-4.3,4.88-9.7,7.7-15.11,11.32l-26.12,17.47c-15.15,10.13-20.54,21.56-48.82,31.08-1.41.47-4.8,1.71-6.35,1.75l-19.48.43c-.97.93-1.33,4.15-.3,4.52l4.68,1.67c8.96,3.19,16.19,9.32,24.41,14.19l19.01,11.27c1.13.67,19.85,2.86,20.71,3.04,13.72,2.9,25.89,10.99,35.91,20.4l19.44,18.27c8.29,7.79,44.49,45.2,46.36,51.34l7.48,24.61c1.17,3.86,11.85,10.82,7.8,39.9l-2.1,15.08c-.59,4.2-1.23,8.18-1.55,12.56l-1.73,23.32c-.5,6.69-.92,13.6-3.68,19.65-.52,1.14-.75,4.18-1.18,5.29-4.07,10.8-13.2,36.12-19.68,43.99l-22.31,27.11c-4.67,5.68-7.55,17.41-25.43,23.6l-36.68,12.7c-17.79,6.16-3.85,15.21-42.08,23.4l-8.3,1.78-8.95,2.12-8.28,1.95-10.2,2.07-10.82,2.21-7.48,1.56-10.91,3.52-8.69,1.57-13.67,1.31-14.21,2.11c1.82-.27-23.36,3.23-17.49,3.22l-47.55.09c-6.83-1.84-14.6-5.36-21.42-8.08ZM370.97,1409.89l9.35-1.81,20.55-14.6c10.12-7.19,15.99-17.66,27.58-23.64,4.88-2.52,8.58-10.14,9.36-15.2l1.66-10.81c3.34-21.74,13.4-44.78,15.11-55.51,1.71-10.71.66-21.62,1.3-32.44.74-12.47.63-24.35.32-37-.04-1.45-5.81-21.6-7-27.2-3.43-16.11.94-17.97-8.07-29.63l-8.81-11.41c-5.96-7.72-12.06-14.62-15.64-24.06-19.19-17.36-36.35-25.67-60.77-34.28-3.81-1.34-13.17-1.96-18.39-3.86s-10.64.34-15.9,1.26c-3.31.58-7.43.23-10.35,1.1-9.54,2.84-19.2,1.45-28.07-2.88l-28.62.13c-10.19,4.78-12.97-.57-25.39,3.52l-3.64,1.2c-.62.2-.66,2.53-.66,3.25,0,10.62-.16,20.54-1.21,30.95-.44,4.36-.17,9.3-.88,13.58-4.46,26.77.75,24.09-.8,47.86-.87,13.22-4.27,20.39-1.72,28.29.88,2.72.72,6.93,1.28,9.89,3.85,20.3.15,14.2.34,31.79l.4,36.39c.25,23.13,6.04,26.23,5.16,49.73-.46,12.17-.65,24.14.31,36.22.52,6.46,3.2,13.09,3.08,19.44-.1,5.38-.94,10.17.04,15.74,12.96,1.71,7.29-1.18,20.77,2.15l7.54,1.86c4.02.99,10.4,1.5,14.68.23l11.35-3.36c1.94-.57,5.88-2.02,8.02-2.04l53.89-.54c11.98-5.67,16.67-2.95,23.82-4.34ZM395.38,1801.16c5.5-2.4,10.52-6.16,15.4-9.69,2.76-1.99,4.75-6.99,7.61-8.54l16.04-8.65c3.7-1.99,10.85-15.53,15.23-21.01,6.63-8.29,13.72-16.41,16.12-27.18,1.28-5.72,3.56-11.96,4.25-17.62,1.93-15.86,5.01-30.32,8.37-45.76,1.28-5.89-.09-13.07.34-19.24,1.05-15.33,3.14-30.22,1.65-45.28l-1.26-12.76-1.05-35.1-1.77-13.07c-2.54-18.74-1.98-13.25-10.75-26.53-9.04-13.69-13.17-14.67-22-25.64-6.16-7.66-12.35-14.31-19.67-21.05-6.16-5.67-10.64-12.77-16.32-19.16-2.35-2.64-7.77-1.73-10.89-2.43l-10.14-2.26c-2.12-.47-4.61-1.29-6.98-1.99-10.72-3.17-6.55.27-19.85-4.22-3.64-1.23-6.74-2.4-10.06.64l-54.43.28c-3.26.02-8,2.9-11.04,3.64l-6.49,1.58c-6.79,1.66-14.96,1.85-21.59.01l-10.19-2.82c-4.92-1.36-10.8-.55-16.78-.52-.61,4.06-1.53,8.32-1.55,12.14-.1,13.52-1.12,25.95-1.97,39.44-1.81,28.7-1.79,56.5-1.1,85.15.38,15.81.47,31.01-1.68,46.65-1.48,10.75-2.3,20.36-.41,31.12,2.41,13.77,1.3,27.8,2.1,41.86,1.44,25.43,4.1,25.37,2.1,52.76-.76,10.41.04,20.87-.26,31.36l-.8,28.24c17,1.58,13.87-2.06,26.1-2.06,4.52,0,9.07.42,13.23,1.94l23.16,8.5,39.43-.2c3.83-2.12,8.1-1.63,12.28-2.45,3.38-.66,6.62-1.53,10.18-1.52,3.86.02,6.67-1.42,10.39-1.63l11.82-.65c.88-.05,24.3-6.76,23.24-6.3ZM145.46,1804.82c1.18.12.31-3.8-.78-4.36-.9-.47-3.29-1.01-4.22-.6-.88.39-.26,3.92.67,4.17s2.84.64,4.33.79Z"/><path class="cls-1" d="M1862.4,1826.45c-10.67-.82-21.84-1.05-32.3.11-6.81.76-11.78,1.34-18.62,0-6.23-1.23-14.4-.93-20.72-.03l-11.57,1.65c-9.58,1.37-19.52,2.96-28.86.66l-9.63-2.37c-5.02-1.23-8.7-2.83-10.57-7.81-1.58-4.21.24-9.19,4.8-12.07,7.47-4.73,17.07,6.08,35.09,2.71l11.31-2.12c5.15-.96,9.62-1.71,15.32-1.56.84.02,3.03-.45,3.52-1.09.61-.79-.02-2.8-.66-3.8-3.21-4.95-5.59-9.18-8.35-14.33-6.6-12.28-14.01-14.77-22.84-24.56-4.68-5.19-9.45-10.5-12.69-16.75l-5.88-11.33c-2.36-4.54-7.71-7.2-11.2-10.91-6-6.35-11.53-12.74-17.14-19.41l-11.16-13.28c-7.03-8.37-13.33-16.64-16.18-27.45l-18.81-19.51c-7.42-7.69-11.96-16.45-17.28-25.52-5.16-8.79-21.06-18.9-28.59-30.1-2.15-3.2-4.97-6.83-9.58-6.01-4.6,7.5,1.57,11.31-4.38,21.74-6.94,12.15-6.03,23-5.05,37.75.55,8.22,2.43,15.36,4.97,23.3,1.31,4.12-1.87,9.55-2,13.9l-.94,30.86-.96,33.3c-.49,16.86-.89,33.06-.77,50.13.02,2.13,1.66,6.23,3.46,6.67l7.26,1.78,9.23,2.09c2.03.46,5.81,2.11,7.8,2.16l27.22.69c5.07.13,7.49,5.67,7.59,9.38s-1.73,9.81-6.79,10.17c-15.42,1.09-23.43,1.03-38.13-2.1l-10.13-2.15c-4.16-.88-6.82-1.87-10.84.07-7.8,3.76-12.71-5.74-22.93.49l-43.14.42-12.27,3.57-58.8-.39c-5.95-.04-11.34-.61-17.25.44-4.73.83-8.44-.36-11.29-3.62-2.3-2.62-3.13-8.07-.88-11.29,2.85-4.08,7.46-5.38,11.92-5.62l7.99-.43c2.97-.71,6.3.51,9.41.52l52.65.22.43-69.85c.04-7.05.87-13.24-.15-20.49-.94-5.18-3.67-10.95-3.91-16.22-.62-13.38-.49-25.89-.06-39.46.26-8.14,7.17-10.84,4.19-31.65-.96-6.67.53-14.09-.38-21l-1.72-13.14-.48-47.63c-.12-12.18,6.96-21.16,6.99-28.33l.11-31.53c.03-9.26-9.74-21.98-6.52-40.49,2.86-16.48,7.26-32.75,5.23-49.55l-2.06-17.08c-1.63-13.53-.18-26.19.19-39.82l.44-16.1c.4-14.62-3.72-10.48-5.8-20.51-2.63-12.64-2.2-25.15,1.56-37.37l5.34-17.35c-12.37-26.69-5.2-45.89-7.9-70.7-.83-7.66-1.96-14.66-1.64-22.45.29-7.03-.24-14.17.54-20.97,1.67-14.52,4.39-27.75,7.77-41.91.36-1.51-1.63-3.88-2.89-4.16l-6.42-1.38-10.03-2.07c-3.21-.66-7.23-1.79-10.34-1.87l-44.68-1.15c-5.67-.15-8.89-4.98-9.07-9.13s1.94-10.26,7.47-10.38c16.21-.36,32.89-3.68,48.51.13l8.01,1.96c4.54,1.11,10.01-.34,14.19.4,7.99,1.41,14.62,1.03,22.49.11,13.48-1.57,30.47-1.66,43.22,1.85,11.63,3.2,3.41.55,18.96-1.85,7.95,2.14,10.47,9.88,10.27,17.37-.31,11.53-1.04,22.16-2.21,33.48s-1.34,36.48-.92,48.65c.35,10.25.62,19.71,3.69,29.51,1.15,3.67-.5,7.61-.74,11.32-.88,13.09-.95,26.08.04,39.21.46,6.09,3.28,12.22,2.56,18.31-.54,4.56-1.01,8.73-1.13,13.22l-1.14,42.59-.82,16.21c-1,19.73-1.34,38.82-4.74,58.18-.76,4.35-2.09,9.23-.67,13.29,1.52,4.34,3.64,8.55,3.98,13.02,3,39.13-8.23,44.72-5.05,76.7.83,8.33,1.54,15.97,5.16,23.99,9.1,20.15-.34,11.74,5.2,37.88.3,1.39,1.01,3.33,1.68,4.16,4.39,5.41,24.56-9.08,29.94-14.4l17.31-17.16c5.95-5.9,14.77-8.91,18.83-16.8,4.57-8.88,13.88-12.2,21.46-18.15,23.24-18.25,28.57-25.88,48.2-45.75,5.12-5.18,10.86-8.03,16.94-11.72,39.61-24.08,25.93-19.86,52.53-45.76.77-.74.25-3.87-.69-3.76-20.71,2.45-38.03,2.47-58.74,1.69-4.53-.17-6.59-7.04-6.57-10.23.03-4.26,3.48-9.13,8.87-9.29l28.85-.82c4.8-.14,9.45-1.54,14.32-1.31,12.84.59,25.77-1.39,38.34.4,8.06,1.15,14.45.37,22.6.02l32.87-1.4c2.97-.13,15.78-2.17,20,3.24,2.44,3.13,4,6.16,3.12,9.59-1.59,6.17-9.31,7.84-15.56,7.93l-37.59.58c-4.42.07-9.29,2.51-14.14,1.63-3.74-.68-6.66.93-7.72,4.42-1.32,4.33-5.84,5.65-8.94,8.41-6.36,5.65-12.34,11.91-18.06,18.34-5.73,6.44-10.67,12.76-17.84,17.72-11.22,7.76-22.02,15-34.13,21.52l-32.82,33c-3.62,3.64-7.62,6.54-11.6,9.75-3.2,2.58-6.26,6.39-9.68,8.5-3.91,2.41-23.05,13.28-17.59,18.39s10.44,10.15,15.07,15.57l15.41,18.05c13.16,15.41,19.63,18.62,31.75,38.2,4.53,7.32,10.24,13.83,16.7,19.73,12.39,11.31,23.4,22.86,34.47,35.68,3.77,4.36,5.11,10.71,8.74,15.4,5.38,6.95,13.65,11.31,20.22,17.06l6.07,5.32c9.51,8.33,8.24,20.03,13.68,30.85,3.26,6.49,8.77,11.43,13.18,17.03,4.05,5.14,8.68,8.2,14.32,11.37,11.18,6.27,12.82,9.56,18.31,19.19,3.87,6.79,10.86,10.45,16.63,15.7,5.37,4.9,6.69,16.06,13.56,19.53,3.4,1.72,6.02-.17,9.58-.59,6.44-.77,13.63-.76,19.9-.21,4.93.43,5.71,6.18,5.57,9.73-.23,5.66-3.76,8.36-8.88,8.72-3.4,1.68-7.73,1.22-11.56,1.78-10.27,1.48-19.33,1.05-29.48.07l-15.14-1.45c-30.11-2.89-14.37.54-34.55,1.39-4.46.19-8.94-1.45-13.13-1.78Z"/><path class="cls-1" d="M1266.7,1809.8c6.6-.97,11.1,1.49,12.56,6.79,1.32,4.83-.86,10.11-6.07,12.31-6.42,2.71-13.26-.14-19.97-.53l-18.86-1.09c-3.66-.21-6.93-.68-10.63-1.3l-10.02-1.68-50.82-.37c-2.34-.02-5.9-1.56-8.01-1.68-10-.57-19.45-.54-29.49-.04,8.38-.41-24.7,3.55-17.15,3.51l-73.97.32-12.93.47c-4.89.18-8.66-2.58-10.04-6.72s.32-9.6,5.21-11.53,10.28-2.5,15.72-2.51l57.65-.18c5.46-.02,4.25-6.11,5.11-8.99,4.69-15.7,4.97-30.42,2.88-46.52-2.37-18.23,1.04-51.91-.02-75.19l-1.06-23.32c-.36-7.84-.23-15.43-.55-23.27l-.96-23.37-.22-107.36,1.88-10.2c3.05-16.57,1.55-33.66-.28-50.57l-2.12-19.5-.79-27.1-75.21-.46c-4.51-.03-7.16-7.16-6.77-10.22.42-3.24,3.66-9.33,8.81-9.35l89.63-.35c2.64-.01,6.06,1.62,8.28,1.65l57.45.91c6.01.1,9.06,9.65,8.89,14.52l-.96,26.8c-.18,5.08-7.23,60.19,0,53.77,1.3-1.15,7.03-12.09,9.18-15.95l8.69-15.62,8.85-13.53c2.03-3.1,3.65-6.19,5.5-9.65,3.24-6.07,8.34-11.15,12.62-16.57,4.81-6.09,9.99-11.04,16.79-14.92,7.98-4.56,15.48-9.8,24.1-13.12,26.43-10.19,18.41-12.16,52.52-9.91,3.09.2,6.63,1.94,10.11,1.57,16.63-1.77,35.1,10.7,43.94,13.33,17.89,5.33,27.25,18.12,34.05,35.88l5.08,13.28c3.07,8.02,1.15,16.29.51,24.57l-1.86,24.03c-.37,4.75-2.58,9.44-4.07,13.73-4.05,11.64-12.53,18.32-24.52,19.87-2.8.36-6.22,1.1-9.51,1.17-9.16.2-14.68,3.99-32.21,1.53-5.59-.78-11.84-4.6-14.99-8.85-3.61-4.87-3.59-11.17-4.69-16.83l-2.33-11.97c-.48-2.45-1.62-5.87-1.6-8.3l.23-26.69c.09-10.2,10.28-22.17,7.59-32.38-1.34-5.08-4.66-10.42-7.36-15.73-7.49-.87-15.3.41-22.61-.95-6.48-1.21-11.9-2.79-18.36.56-9.53,4.94-19.64,9.62-28.04,16.55-5.15,4.25-9.05,9.89-13.59,14.84-3.33,3.63-5.14,8.45-7.83,12.57l-10.74,16.45c-2.88,4.41-4.93,9.34-7.53,13.89-5.43,9.55-9.92,18.64-12.49,29.43-2.17,9.11-9.99,17.1-10.22,26.63l-1.36,54c-.14,5.59-1.52,10.75-1.66,16.37l-.92,36.5,1.5,53.73c.59,21.15-2.66,41.63-1.03,62.8,1.17,15.12-.91,24.89-.79,38.22.07,8.74,3.41,16.9.28,25.75,9.6.36,18.23-.24,27.28.75,3.35.36,6.78,1.33,10.36,1.21,4.84-.16,8.84,1.25,13.48,1.47l20.96,1.03c2.77.14,6.21,2.11,9.53,1.62Z"/><path class="cls-1" d="M1004.04,936.91c1.01,8.34,1.26,26.93-3.53,33.51-9.22,12.68-27.84,13.88-36.41,3.48-3.47-4.21-2.34-9.61-2.07-14.54.56-10.22.09-20.02,1.86-29.88.94-5.22,3.87-10.61,4.18-15.79l1.1-18.33-1.62-17.14c-.47-4.97,3.31-9.95,1.27-14.81-5.68-13.5-3.74-28.1-1.98-42.23l1.82-14.6c1.59-12.79,2.19-25.82,1.3-38.86-.47-6.93.09-14.59-1.17-21.23-2.28-12.06-4.7-23.03-4.18-35.73.44-10.75,2.43-22.4.21-32.86-1.6-7.55-1.23-12.57-.22-19.81,2.55-18.43-1.01-44.61.36-51.82l1.78-9.34c1.63-8.53.11-17.51.29-26.16s.94-18.06-.3-26.85c-.78-5.55-.42-11.04-.86-16.29-.94-11.3-2.36-20.6.98-31.88,1.82-6.15-.52-14.4.69-20.99,1.9-10.31,2.11-19.94,1.99-30.48l-.61-54.65-2.09-23.19c-.86-9.57-1.86-18.92-1.21-28.43.54-7.98,1.16-15.79.29-23.66l-2.35-21.14-1.37-12.03c-1.08-9.52-1.29-19.64-.26-29.12l1.59-14.66c.49-4.53,1.26-11.83-2.19-14.74-7.52.75-20.48-3.83-21.59-3.88l-25.76-1.05c-7.65-.31-15.13-6.24-22.73-6.94s-11.98-2.63-17.56-7.44c-4.35-3.75-6.14-7.12-8.07-13.6l-5.36-18.02c-2.02-6.8-.96-13.38-2.25-20.56-.67-3.72,1.04-8.17,1.41-11.96l1.92-19.52c.98-9.92.97-19.92.54-30.12-.17-3.95-6.5-6.42-9.29-7.85-4.83-2.48-4.81-8.17-3.05-12.75,4.46-11.66,12.91-20.44,23.06-27.64,1.73-1.23,4.06-3.85,5.67-5.35l10.14-.31c3.72,4.6,8.19,7.29,13.68,9.74,19.13,8.57,11.54,7.98,20.41,19.12,4.09,5.14,6.66,13.59.62,18.41-6.73,5.37-19.38,5.34-19.49,12.79l-.41,26.34c-.15,9.97-2.27,20.31.38,30.06l5.28,19.41c3.11,11.43,20.47,18.52,33.49,12.77,3.97-1.75,9.68-3.5,11.91-7.09,3.59-5.79,1.85-12.59,3.02-18.87l6.82-36.35c-.02.11-2.32-39.31-2.49-43.72l-.7-18.91-15.47-6.61c-6.57-2.81-5.14-11.89-2.46-16.57,8.06-14.07,16.65-13.93,21.26-20.69s10.65-14.7,19.77-15.54c10.4,5.55,20.39,12.44,29.73,19.67,4.58,3.54,7.22,8.58,10.12,13.37,2.7,4.47,3.37,8.7,2.27,14.23-2.77,13.88-23.54,5.11-21.98,24.32,1.15,14.24-2.59,18.68,4.23,30.53,3.65,6.35,1.95,13.12,2.07,19.94.12,6.61,2.99,13.42,3.57,20.13,1.75,20.17-1.36,20.42,6.23,41.33l9.92,1.91,9.44,1.92c3.36.68,8.03.6,11.75.65,6.17-5.23,6.08-12.23,7.07-19.59,1.22-9.06,12.64-16.1,9.35-44.37l-1.52-13.08c-1.03-8.88-.41-22.69-3-24.06-7.79-1.12-15.68-5.45-17.44-13.95-1.53-7.44,12.78-17.93,18.96-21.74,9.24-5.7,3.28-8.54,14.34-17.14,5.14-4,12.39-3.23,15.77,3.01,10.5,19.35,14.22,11.23,31.39,31.83,1.34,1.6,1.66,5.97.65,8.35-.85,2.02-3.63,4.23-6.32,5.67-7.1,3.79-10.81-1.32-15.26,5.89,3.32,18.29,2.78,37.3.18,55.77-.52,3.72-.68,7.96-.85,11.86l-1.08,24.36c-.9,20.35-9.69,26.15-27.72,29.96-3.67.78-7.36,1.3-11.33,1.87l-15.1,2.17c-1.66.24-4.92,1.43-6.89,1.95l-7.44,1.96c-4.31,1.14-8.56,1.46-13.1,2.11s-8.65,1.81-13.23,1.51c-3-.2-6.12.28-6.59,3.75l-2.78,20.61c-3.18,23.52-1.16,54.31,1.89,78.12.98,7.68.67,16.33-.08,23.85-1.71,17.06,6.35,3.69.7,27-.74,3.07,1.55,6.99,1.68,10.05.51,12.22.4,24.02.1,36.31-.22,8.91,3.25,17.32,2.87,25.8l-1.02,22.82c-.7,15.69,4.18,40.13,2.12,57.85l-1.66,14.24c-1.09,9.38.36,18.87-.74,28.24-.52,4.46-1.53,8.64-1.47,13.21.14,10.95-4.22,36.42-3.5,42.36l1.73,14.38-1.85,29.43c-.93,14.74-1.51,54.31,2.23,67.14,4.53,15.54.93,29.98,1.04,45.54.11,15.59,2.19,30.53.73,46.48-1.49,16.35-.3,37.12,2.35,53.22,1.85,11.23-2.41,14.15-4.12,29.31-.94,8.32.59,16.52,1.59,24.84Z"/><path class="cls-1" d="M689.22,963.64c-5.18,8.99-15.8,10.95-24.9,11.1-6.78.12-11.96-3.12-11.87-10.22.04-3.41-1.63-8.33-2.78-11.98-1.84-5.81.38-11.15.89-17.02.84-9.59.46-19.1.47-29.04,0-2.87-1.47-6.22-1.58-9.12l-.81-22.97c-.28-7.85-1.5-14.64,2.24-22.02-5.07-16.42-4.54-18.02-3.35-35.22.59-8.55,1.14-16.59,1.13-25.31l-.09-103.21-3.28-30.87c-2.3-21.58,2.68-89.11,1.7-95.91l-2.03-14.02c-1.23-8.53.33-16.88-.43-25.31-1.07-11.88-2.49-23.74-.62-35.54,1.58-9.98,3.97-19.1,2.89-29.92-7.77-.28-15.52.89-23.25-.19l-14.13-1.96c-3.44-.48-7.39-1.36-10.9-2.08l-9.3-1.9-11.07-2.14-10.1-1.71c-10.95-1.86-17.12-10.31-22.79-18.74-3.7-5.49-11.22-9.38-11.45-16.7l-.72-23.07-3.35-13.32c-1.86-7.39-.3-15.25.03-22.64l-4.7-6.08c-3.66-4.74,1.7-8.61,3.21-12.29,5.43-13.24,6.02-9.72,16.48-20.38l12.1-12.32c2.97-3.02,6.6-2.13,9.73-1.03,9.15,3.19,16.14,7.89,23.59,14.13,6,5.02,13.32,9.38,15.84,17.47,2.96,9.5-9.08,16.93-19.16,16.34-2.77,3.46-.65,16.6.49,21.65,2.64,11.72,2.14,23.6,3.41,35.54.66,6.15,9.28,9.54,14.3,9.31l10.79-.49c6.41-.29,15.87-1.16,20.17-4.83,7.16-6.1,4.79-34.33,4.59-45.76l-.68-39.49c-4.42-3.45-13.48-1.2-17.82-9.09-4.7-8.55-.34-18.18,7.68-22.97,5.01-2.99,9.18-6.94,13.94-10.28l11.9-8.36c1.32-.93,4.57-1.66,6.51-2.44,6.25,2.63,11.95,5.79,17.9,9.25,10.45,6.09,20.73,7.35,25.43,23.83,2.11,7.41-10.75,15.97-15.09,27.29-2.8,7.29,2.16,29.76.89,44.88-.38,4.55-3.68,10.47-1.29,14.85,3.04,5.57,6.38,10.99,8.33,16.95,3.02,9.22,13.34,7.32,21.09,5.36,5.01-.09,11.39,3.92,16.72-.11,1.99-3.76,1.26-10.09,2.28-14.72l3.26-14.79c.97-4.4,2.01-28.85.94-32.71-.92-3.32-15.93,2.23-21.54-6.37-1.8-2.76-2.05-10.33-.06-12.87,4.93-6.27,19.43-14.25,22.33-17.22,12.02-12.37,14.19-26.99,27.37-19.69,18.79,10.4,33.7,18.53,44.28,37.89,1.69,3.09-1.66,8.06-3.59,9.88-7.45,6.99-19.37-1.02-21.75,7.43-2.99,10.59.94,21.53-.24,32.1-1.22,10.95-2.64,21.42-4.56,32.08-1.16,6.42-6.02,13.02-8.88,18.85-4.24,8.62-19.15,9.37-25.78,10.14-7.16.84-14.23,3.61-21.58,5.31-6.42,1.48-13.97-.05-20.72,1.04l-13.21,2.14c-12.03,1.95-17.19.31-17.18,4.52.01,6.94-.56,13.57.24,20.24,1.44,12,2.57,23.56,1.11,35.64l-2.07,17.09c-.41,3.42,2.48,9.14,2.64,13.02l.77,19.38.85,27.42c.48,15.53.97,31.13-.44,46.51-.71,7.7-.81,13.8.03,21.72,3.3,31.24-1.71,54.53,2.28,82.21,1.55,10.76.14,21.23-1.1,32.12-.47,4.12.34,8.72.5,13.05.5,13.48-.53,26.79,2,39.88,2.26,11.7.94,22.46-.14,34.26-.35,3.84,1.39,9.8,1.8,13.86l1.86,18.4c.67,6.67,2.31,13.48,2.55,20.28.57,16.61.9,35.29-1.15,52.03Z"/><path class="cls-1" d="M951.27,1826.5c-3.19.89-5.98.67-9.29.1l-12.35-2.14c-6.03-1.05-13.86-.8-20.1.07l-14.12,1.96-13.26,1.81c-9.99,1.37-19.41,1.51-29.34-.1l-10.19-1.64-20.32-1.84-18.08,1.28-4.32,1.95-89.56-.24c-5.18-.01-8.83-5.35-9.6-8.6-.96-4.08,1.74-11.26,7.13-11.27l75.28-.15c.69-2.56,1.64-6.19,1.63-9.03-.02-14.79.3-28.7,1.44-43.25l2.31-29.54c-2.57-8.77-5.26-17.91-5.99-27.61l-1.99-26.42-1.47-14.12c-2.14-20.52,2.19-34.18,3.15-54.78l.85-18.33c.58-12.36,3.87-25.02,1.39-37.3-1.75-8.67-2.64-16.54-2.89-25.53-.59-21.81-6.43-42.93-5.18-59.66l1.91-25.55c1-13.41.4-26.75.65-40.34-5.69-.12-11.18.29-16.19-.63-14.96-2.77-7.84-.07-20.63-2.92l-9.29-2.07c-1.65-.37-5.11-2.17-6.79-2.23l-18.09-.64c-4.8-.17-8.2-5.67-8.3-9.28-.35-12.81,18.95-11.62,27.04-10.05l9.59,1.86c2.67.52,5.81,1.55,8.73,2.29,3.94.99,8.29,1.15,12.48,1.87,20.76,3.59,17.7.14,21.34-.08,15.71-.93,31-.68,46.46.59,10.3.84,20.93,1.65,31.45.31,3.13-.4,5.79-4.59,10.39-3.93,14.83,2.15,10.91,15.95,10.37,32.91l-.94,30.1-.93,38.74c-.36,14.84-1.71,29.11-1.29,43.88l.53,19.04.9,21.35.55,62.86,4.66,19.23c.7,2.89-2.74,19.94-3.03,29.48-.24,7.89-1.84,16.25-.35,23.96,1.41,7.3,1.75,13.45,1,20.88-.69,6.88-.49,13.86-.72,21.06-.11,3.34-1.29,6.85-1.4,10.2l-.71,21.14c-.28,8.43-2.32,16.66-1.11,24.95.83,5.73,1.36,10.62,1.7,16.66,16.3.64,8.95-1.31,25.17-2.26,11.04-.65,22.22-3.78,33.11-1.22l7.28,1.71,6.27,1.39c2.69.59,5.33,1.22,7.07,2.86s2.1,4.94,2.15,7.55c.08,4.65-1.8,7.53-6.15,8.74Z"/><path class="cls-1" d="M1339.93,946.14l-3.36,14.09c-2.21,9.27-5.92,15.56-15.21,17.16-4.8.82-10.81,2.17-15.74.41-12.8-4.57-5.59-32.9-8.59-49.36-2.61-14.34-2.18-26.89.29-41.37,1.07-6.26-2.53-14.55-2.17-21.35.65-12.2.54-23.87-.17-36.12l-1.07-18.28-1.13-12.2-.78-15.31-.77-29.82c-.18-6.97-.29-13.68-.22-20.76l.39-40.6-.8-21.2c-.36-9.57.97-18.14,2.8-27.55.68-3.5.06-8.27.5-12.02,3.54-30.35-1.3-23.75-1.5-51.74l-.21-28.37-.84-23.14-.6-13.3-.82-23.27-.31-38.42-15.44-.15c-1.74-.02-5.04-1.43-6.85-1.67-7.69-1.01-15.75,1.02-22.89-.9l-12.51-3.38c-8.91-2.41-16.9-5.68-24.69-9.69-8.74-4.49-13.51-10.48-15.37-20.62-.56-3.06-4.21-7.37-5.17-10.68-1.78-6.1.51-11.94,1.27-18.03,2.16-17.47-3.82-23.08-1.57-36.3l.59-3.49c.39-2.3-14.94-4.32-12.77-13.77,2.2-9.56,12.01-13.19,17.98-19.63l11.62-12.55c1.37-1.48,5.47-2.68,7.78-3.06,4.41-.74,11.06,10.56,21.44,13.57,9.53,2.76,19.16,8.42,21.89,18.78,1.64,6.22-5.88,12.33-11.71,11.95-4.12-.27-8.25.85-11.04,3,.42,5.29.37,10.97,1.25,15.94,1.1,6.15,2.32,11.24,1.66,17.51-1.04,9.86.55,19.1,2.3,28.49,1.14,6.14,3.84,10,10.79,10.09l27.45.38c2.83.04,6.36-2.34,7.09-5.4,5.12-21.32-.34-22.38,6.54-51.98,1.59-6.84-.29-14.87.55-22.12.51-4.4,1.72-9.62.06-13.49-2.2-5.13-14.65.77-23.09-8.92-7.89-9.06,5.68-17.94,11.51-22.4,18.64-14.28,14.7-6.63,28.73-15.73,11-7.14,30.12,7.5,37.23,15.12l12.25,13.1c4.47,4.79-.56,14.35-5.9,15.77l-6.55,1.74c-3.98,1.06-6.07,2.76-6.42,7.18-1.32,16.66-3.74,16.67-3.59,32.14l.25,25.26c.08,7.99,7.16,10.32,9.46,19.56,1.96,7.86,7.9,13.49,16.03,12.53,18.84-2.24,24.77,3.02,25.08-7.88.15-5.41,2.32-10.51,3.44-15.68l3.95-18.23,1.3-11.14c2.29-6.95,5.44-13.06,2.96-20.53-2.34-7.05-12.06-2.65-15.39-5.11-5.12-3.78-4.82-12.2-.39-17.37,3.75-4.38,7.69-7.69,12.17-11.53,4.74-4.06,7.38-10.7,13.18-14.13,3.26-1.93,10.3-2.08,13.67-.08,8.66,5.14,6.82,11.24,18.79,16.83,7.42,3.47,14.02,11.11,12.04,19.9-1.6,7.1-13.08,6.41-15.71,10.23,3.54,16.32,2.87,29.38,2.53,46.71-.19,9.41-6.85,27.81-14.56,35.71-6.03,6.18-14.47,6.82-22.5,8.28-3.49.63-7.86,2.81-11.26,3.15-27.38,2.78-26.68,9.2-36.47,10.17-8.42.83-24.01-.96-24.01,4.06l-.03,50.09c0,7.25-.32,14.18.33,21.34.91,10.16-.5,20.04-.17,30.22.2,5.99,3.43,23.99,3.44,24.3.09,7.17.9,13.44,1.93,20.36,1.83,12.31,2,24.13,2.6,36.46.39,7.94,3.34,15.94.96,23.99-1.13,3.8-3.54,8.44-3.37,12.31.26,6.19-.18,10.86-4.11,15.56l.38,77.9,2.35,18.71.75,48.56c.19,12.44,4.34,19.2,2.31,36.97-.46,4.04-2.19,8.69-3.45,12.5-2.09,6.32,2.44,11.48,3.33,17.26l4.07,26.33c.88,5.72,1.4,12.39.03,18.15Z"/><path class="cls-1" d="M865.76,1170.9c-9.92,14.39-15.63,11.58-29.54,11.03l-30.39-1.2c-16.43-.65-25.92-25.37-29.97-38.23-10.28-32.65-4.39-24.39,19.66-57.96,13.62-19.01,25.45-11.42,35.99-11.06l18.43.62c4.75.16,10.98,3.95,14.12,7.6,5.02,5.83,7.48,12.83,10.97,19.37,7.9,14.81,8.43,27.1,3.42,43-3.07,9.75-6.89,18.44-12.68,26.84Z"/><path class="cls-1" d="M145.46,1804.82c-1.49-.15-3.4-.54-4.33-.79s-1.55-3.78-.67-4.17c.93-.41,3.32.13,4.22.6,1.08.56,1.95,4.48.78,4.36Z"/></svg>