<?xml version="1.0" encoding="UTF-8"?><svg id="Ebene_1" xmlns="http://www.w3.org/2000/svg" viewBox="0 0 314.61 367"><defs><style>.cls-1{fill:none;stroke:#e52421;stroke-miterlimit:10;stroke-width:4px;}</style></defs><path class="cls-1" d="M155.94,254.04c-1.19-.11-2.64-.27-3.16-.73-2.14-1.86-.57-12.14.3-15.74,1.86-7.73-.49-4.64.52-12,.1-.76-.44-2.24-.57-3.03-.77-4.82.28-9.42.57-14.23s.24-9.44.03-14.26c-.06-1.32-.83-3.32-1.04-4.72-.99-6.67,1.05-5.99.11-12.08-1.08-6.95.93-6.67-.01-14.4-.26-2.1-.4-3.8.06-5.85.56-2.48.46-4.83.48-7.24.02-3.01.02-5.97-.23-9.04l-.56-6.82c-.16-1.91.76-4.53.86-6.54l.32-6.35c.32-6.26.65-12.4.06-18.66l-.41-4.35-.33-2.92-.26-13.73-.64-5.59c-.41-3.58-.22-7.11-.06-10.84.06-1.48.94-4.51-.16-5.45l-5.39-1.11-6.02-.22-7.52-2.14c-5.5-1.57-5.68-3-7.3-10.32-.19-.86-.18-2.26-.31-3.21-.56-4.07.31-4.6.52-9.19l.32-7.06c.16-3.5-2.44-2.08-3.36-4.01-1.45-3.05,5.65-11.61,9.63-11.08.74.1,1.61,1.11,2.52,1.77,1.39,1,4.12,1.38,5.04,2.87l2.16,3.48c.42.68.6,2.49.21,3.19-1.19,2.14-5.73,2.29-5.75,4.43-.06,5-.07,9.2.18,14.08.07,1.27.97,3.42,1.3,4.77.96,3.93,5.12,5.01,9.09,3.5,2.84-1.08,3.27-2.58,3.37-5.55.06-1.97.91-4.51,1.41-6.58.69-2.85.2-5.4.12-8.27l-.26-9.3c-.13-4.53-5.78-2.49-5.52-6.02.12-1.68,1.25-3.93,2.55-4.78,2.18-1.42,3.56-2.64,5.08-4.69.73-.99,2.8-2.55,4.04-1.87,4.79,2.66,11.62,6.68,10.17,12.61-.44,1.81-4.74,1.62-4.98,3.61-.12,1.02-.16,2.79-.35,3.61-.57,2.52-.36,4.06,1.02,6.28.93,1.5.45,4.1.72,5.93.53,3.53.85,6.53,1.02,10.15.07,1.42.92,3.52,1.42,4.93l6.07,1.14c2.5.47,3.11-2.37,3.42-4.11,1.23-6.89,3.69-3.76,2.42-14.47l-.87-7.32c-1.73-.57-4.01-1.53-4.4-3.29-.52-2.33,1.61-4.13,3.3-5.21,1.51-.97,2.59-2.09,3.43-3.72.8-1.54,3.72-3.12,4.95-1.51,1.7,2.22,3.12,4.14,5.54,5.65,1.36.84,3.48,2.74,3.54,4.27.1,2.61-2.71,3.17-5.21,2.97-1.07,4.29.94,5.52.11,10.49-1.46,8.79-.27,10.58-1.6,17.61-.5,2.64-3.89,3.96-6.18,4.34l-5.86.97-13.44,2.45c-1.1,5.51-1.53,14.56-.94,20.2.49,4.65,1.09,9.33.55,13.65.27.86.8,2.59.59,3.43-.42,1.61-.11,2.79-.08,4.25l.22,12.36.79,3.79c-1.14,8.9.58,12.14,0,22.07l-.5,8.65-.41,6.72c-.31,5.05-1.04,5.99-.55,10.59.26,2.47.09,4.97-.08,7.45-.35,5.31-.39,10.55-.17,15.99.07,1.75.77,3.86,1.08,5.63,1.01,5.91-.95,5.97-.06,12.53.38,2.77.26,5.05.03,7.8-.78,9.13.84,14.63.68,16.57-.2,2.41-1.66,4.93-1.36,7.31l.92,7.29c.11.89-.38,2.68-.48,3.68-.34,3.26-3.12,4.83-6.44,4.51Z"/><path class="cls-1" d="M81.77,235.93v12.63c0,4.43-6.15,4.35-9.15,3.72l-.82-3.76c-.45-2.08-.52-3.59-.29-5.73.33-2.99.18-6.22-.02-9.25l-.48-7.36.21-4.43c.2-4.12-.2-7.75-.17-11.93l.18-31.03c-1.32-6.28-1.12-18.11-.74-24.48.21-3.53.13-6.73-.03-10.25l-.33-7.11-.35-5.8c-.38-6.27,1.83-6.71.67-11.66-2,.07-4.02.44-5.8.11l-12.23-2.24c-1.83-.34-4.19-.5-5.59-2.12-1.85-2.15-3.55-4.39-5.22-6.87l-.29-6.32c-.12-2.65-.88-4.69-.76-7.44.2-4.6-2.99-1.11-.44-6.88.8-1.81,1.76-2.99,3.22-4.18s2.55-2.31,4.09-3.78c2.35-2.25,10.73,4.07,12.59,7.11.8,1.32-.46,3.57-1.63,3.98l-3.5,1.22c.14,2.82.78,5.44.9,8.49l.22,5.54c.03.76,1.62,2.32,2.38,2.42,2.71.33,9.67.77,10.36-2.65.77-3.84.66-7.18.27-10.82-.35-3.18-.19-6.54-.29-9.69l-4.01-1.53c-1-.98-1.15-4.58.07-5.51l6.67-5.03c2.19-1.65,4.02-1.22,6.32.05l5.77,3.21c1.7.94,2.8,3.77,1.92,5.45s-3.25,3.56-3.43,5.43c-.57,5.77.43,9.56-.26,12.52-.92,3.98-.05.85,2.15,7.02.89,2.48,3.18,1.93,5.09,1.8l4.53-.31c.29-1.08.71-3.1.99-4.54,1.25-6.49.21-3.63.99-9.48.07-.51.03-1.55-.28-1.9-1.25-1.4-3.73-.11-5.14-1.3-.97-.82-.87-3.7.04-4.39l5.6-4.22c1.6-1.2,2.39-3.7,4.27-4.93,1.12-.73,3.45.73,4.53,1.33,3.53,1.95,6.47,4.01,8.72,7.39.5.75.76,2.25.42,2.9-1.18,2.27-3.82.95-5.68,2.09-1.57.97.36,9.96-2.21,18.11-2.04,6.47-4.07,5.73-8.04,6.42-2.59.45-5.28,1.5-7.78,1.65l-8.19.48c-.78.05-2.92.44-3.06,1.23-.84,4.69,1.01,9.72-.05,16.53-.28,1.81-.19,2.75.03,4.56.97,7.83.96,17.22.59,25.22-.26,5.57.52,9.57.41,12.99-.14,4.5-.35,8.54.13,13,.35,3.29-.18,6.46-.05,10.61l.38,11.65.4,12.22c.05,1.68,1.21,8.92,1.21,9.85Z"/><path class="cls-1" d="M247.43,251.73c-2.22,2.34-5.66,2.03-8.25,1.39-2.05-4.15-.2-8.15-1.21-12.84-.55-2.52-1.02-4.46-.23-7.02,1.23-3.99-.58-6.41-.3-8.96.34-3.12.18-5.63-.02-8.67l-.45-6.93-.21-11.74-.46-2.55.12-12.33c.01-1.39.37-2.75.09-4.03-.84-3.91.39-7.51.64-11.41.81-12.6-.61-8.66-.43-15.34.12-4.38.22-8.6-.07-12.94l-.35-5.29-.02-14.22-6.2-.48c-6.25-.48-9.34-.87-15.12-3.6-2.54-1.2-3.14-2.87-4.16-5.32-2.78-6.71-.45-2.31-1.03-11.86l-.36-5.91-2.2-1.52c-1.46-1.01-.54-3.56.68-4.68s2.76-2.05,3.85-3.3c1.3-1.47,3.29-4.02,5.5-2.42,1.86,1.35,3.62,2.94,5.98,3.62,2.13.61,4.51,2.73,3.65,5.18-.69,1.98-3.37,2.36-5.56,2.44l.59,8.92c.22,3.35,0,6.58,1.46,9.52l4.28.24c1.73.1,3.86.78,5.62.06.87-.36,1.7-2.5,1.61-3.49-.66-7.8,2.44-11.15,1.35-20.45l-4.43-1.02c-.77-.18-1.95-1.33-2.19-2.03-.93-2.75,5.38-6.28,7.6-7.33l3-1.42c4.53-2.15,9,2.75,11.71,5.55.79.82,1.78,1.92,1.8,2.87.08,3.05-4.56,2.97-5.14,4.24l-.96,6.69c-1.47,10.27.46,8.98,3.52,16.37,1.49,1.01,4.73.85,6.7.86s2.69-.84,2.92-2.5c.19-1.35.47-2.63.76-3.92l.96-4.35c.31-1.4.29-3.2.87-4.44.52-1.11.86-2.1.57-3.02-.32-1.01-1.58-1.71-2.68-1.91l-2.12-.38c-1.53-5.08,2.79-5.81,4.68-8.59,1.31-1.93,4.01-3.97,6.04-2.03l3.58,3.4c1.58,1.5,3.59,2.04,4.17,4.3.9,3.5-3.98,2.62-4.15,4.66.94,5.05,1.49,10.65-.33,15.58-.82,2.23-1.97,5.1-4.21,6.01-4.02,1.62-8.37,1.86-12.4,3.12-2.61.82-4.77,2.13-7.77,1.67-1.47-.23-2.88.85-2.86,2.36.05,5.22-.14,10.24.23,15.35.23,3.18.17,5.98.07,9.22-.08,2.71.78,5.89,1.04,8.69l.52,5.59c.32,3.43.05,6.45.92,9.79.37,1.42.01,2.92-.68,4.28-.39.75-.38,1.85-.59,2.83l-.72,3.39c-.74,3.46-.19,19.07.35,23.87.88,7.78-.06,10.56,1.17,20.76.12,1.01-.38,3.21-.77,4.14-.84,2.04-.26,3.12.3,5.06,1.43,4.94,1.66,12.89-.32,18.22Z"/><path class="cls-1" d="M26.64,272.29h6.95c.53.74,1.21,1.16,2.05,1.26.84.11,1.47.16,1.9.16h2.69c2.84,0,5.63.29,8.37.87,2.74.58,5.34,1.58,7.82,3,2.47,1.42,4.71,3.29,6.71,5.61,2,2.32,3.74,5.16,5.21,8.53v8.37c0,1.79-.47,3.45-1.42,4.98-.95,1.53-1.97,2.95-3.08,4.26-1.11,1.32-2.11,2.5-3,3.55-.9,1.05-1.34,1.9-1.34,2.53,0,.32.24.71.71,1.18.47.47.97.97,1.5,1.5.63.53,1.37,1.11,2.21,1.74,1.05,0,2.08.5,3.08,1.5,1,1,1.84,2.21,2.53,3.63.68,1.42,1.24,2.92,1.66,4.5.42,1.58.63,2.9.63,3.95v4.42c-.42,2-.61,3.77-.55,5.29.05,1.53-.5,3.4-1.66,5.61-.74.63-1.24,1.29-1.5,1.97-.26.69-.53,1.32-.79,1.9-.26.58-.63,1.11-1.11,1.58-.47.47-1.24.87-2.29,1.18-3.37,2.21-6.85,4-10.42,5.37-3.58,1.37-7.58,2.05-12,2.05h-20.22l-4.26-1.74-1.58.95c-.84.53-1.63.79-2.37.79h-3.16c.21-.21.21-.39,0-.55-.21-.16-.53-.32-.95-.47-.42-.16-.92-.29-1.5-.39-.58-.11-1.08-.21-1.5-.32-1.48,0-2.5-.26-3.08-.79-.58-.53-.87-1.16-.87-1.9,0-1.47.29-3,.87-4.58.58-1.58,1.6-2.37,3.08-2.37h2.69c.63,0,1.79-.21,3.47-.63,1.68-.42,2.84-.63,3.47-.63s1.08-.16,1.34-.47c.26-.32.39-.71.39-1.18s-.05-.97-.16-1.5c-.11-.53-.16-.95-.16-1.26.53-.53.68-1.16.47-1.9-.11-.32-.26-.58-.47-.79v-3.95c.63-1.47,1-2.84,1.11-4.11.1-1.26.16-2.21.16-2.84v-4.42c.21-1.16.47-2.31.79-3.47.21-.84.42-1.71.63-2.61.21-.89.32-1.5.32-1.82,0-.74-.08-1.11-.24-1.11s-.29-.1-.39-.32c-.11-.21-.13-.81-.08-1.82.05-1,.29-2.87.71-5.61v-5.21c0-.74.21-1.66.63-2.76.42-1.11.63-2.08.63-2.92,0-2.74-.47-4.98-1.42-6.71-.95-1.74-2.13-3.18-3.55-4.34-1.42-1.16-2.98-2.08-4.66-2.76-1.69-.68-3.24-1.34-4.66-1.97-1.42-.63-2.61-1.32-3.55-2.05-.95-.74-1.42-1.68-1.42-2.84,0-.95.37-1.79,1.11-2.53s1.58-1.34,2.53-1.82c.95-.47,1.95-.81,3-1.03,1.05-.21,1.9-.32,2.53-.32h3.16l6.95-1.42h5.37ZM39.28,323.78c-1.48,0-2.66.53-3.55,1.58-.9,1.05-1.58,2.27-2.05,3.63-.47,1.37-.82,2.74-1.03,4.11-.21,1.37-.32,2.37-.32,3v9.63c0,.32.13.79.39,1.42.26.63.63,1.26,1.11,1.9.47.63,1.03,1.18,1.66,1.66.63.47,1.32.71,2.05.71,1.37,0,2.45-.16,3.24-.47.79-.32,1.6-.58,2.45-.79,1.37-.32,2.82-.87,4.34-1.66,1.53-.79,2.92-1.74,4.19-2.84,1.26-1.11,2.26-2.31,3-3.63.74-1.32,1-2.71.79-4.19-.11-1.37-.16-2.45-.16-3.24s.05-1.39.16-1.82c.1-.42.16-.76.16-1.03s-.05-.6-.16-1.03c-.11-1.37-.63-2.53-1.58-3.47-.95-.95-2.11-1.66-3.47-2.13-1.37-.47-2.87-.81-4.5-1.03-1.63-.21-3.13-.32-4.5-.32h-2.21ZM40.22,287.76c-.63,0-1.4.37-2.29,1.11-.9.74-1.71,1.63-2.45,2.69-.74,1.05-1.32,2.13-1.74,3.24-.42,1.11-.47,1.97-.16,2.61v9.63c.21,1.48.42,2.71.63,3.71.21,1,.53,1.87.95,2.61.42.74,1,1.26,1.74,1.58.74.32,1.84.47,3.32.47.74,0,1.74-.26,3-.79,1.26-.53,2.53-1.18,3.79-1.97,1.26-.79,2.34-1.68,3.24-2.69.89-1,1.34-1.97,1.34-2.92v-8.37c0-.95-.32-2.05-.95-3.32-.63-1.26-1.5-2.45-2.61-3.55-1.11-1.11-2.34-2.05-3.71-2.84-1.37-.79-2.74-1.18-4.11-1.18Z"/><path class="cls-1" d="M101.51,271.97c.32,0,.84.08,1.58.24.74.16,1.53.32,2.37.47.84.16,1.66.29,2.45.39.79.11,1.39.16,1.82.16.21,0,.58.21,1.11.63.53.42,1.03.95,1.5,1.58.47.63.89,1.34,1.26,2.13.37.79.55,1.55.55,2.29,0,.42-.63.79-1.9,1.11s-2.69.63-4.26.95c-1.58.32-3,.69-4.26,1.11-1.26.42-1.9.95-1.9,1.58v11.06c.21.84.47,1.63.79,2.37.21.63.42,1.26.63,1.9.21.63.32,1.11.32,1.42l-1.74,7.42c0,.32.08.9.24,1.74.16.84.37,1.74.63,2.69.26.95.47,1.84.63,2.69.16.84.24,1.42.24,1.74l1.42,7.9c0,2.21-.24,4.26-.71,6.16-.47,1.9-.71,3.21-.71,3.95v4.42c0,.63-.29,1.18-.87,1.66-.58.47-.87,1.82-.87,4.03,0,.42.16.92.47,1.5.32.58.71,1.11,1.18,1.58s.97.87,1.5,1.18c.53.32.95.47,1.26.47l3.47.95c2.95,1.37,4.42,3.58,4.42,6.63,0,1.26-.87,2.29-2.61,3.08-1.74.79-3.5,1.18-5.29,1.18h-8.69l-5.84-1.74c-.63,0-1.53.16-2.69.47-1.16.32-2.37.68-3.63,1.11-1.26.42-2.42.79-3.47,1.11-1.05.32-1.74.47-2.05.47-.63,0-1.5-.34-2.61-1.03-1.11-.69-1.66-1.4-1.66-2.13,0-1.16.6-2.18,1.82-3.08,1.21-.89,2.53-1.79,3.95-2.69,1.42-.89,2.63-1.87,3.63-2.92,1-1.05,1.34-2.37,1.03-3.95-.84-1.58-1.05-2.76-.63-3.55.42-.79.63-1.55.63-2.29v-37.75l-1.74-4.26c.21-1.16.47-2.26.79-3.32.21-.84.42-1.66.63-2.45.21-.79.32-1.39.32-1.82,0-2.11-.16-3.76-.47-4.98-.32-1.21-.74-2.18-1.26-2.92-.53-.53-1.11-.87-1.74-1.03-.63-.16-1.29-.26-1.97-.32-.69-.05-1.4-.13-2.13-.24-.74-.1-1.42-.32-2.05-.63-.63-.42-1.16-1.11-1.58-2.05-.42-.95-.63-2.42-.63-4.42,0-.42.05-.84.16-1.26.1-.32.24-.63.39-.95.16-.32.45-.47.87-.47h8.69c.42,0,.92.05,1.5.16.58.11,1.13.26,1.66.47.53.21,1.11.42,1.74.63.63,0,1.42-.05,2.37-.16.95-.1,1.84-.26,2.69-.47,1.05-.21,2.16-.42,3.32-.63h1.74c.42,0,.95-.21,1.58-.63l.63-.63Z"/><path class="cls-1" d="M311.57,352.6c-.74-1.63-1.37-2.76-1.9-3.4-.84-1.05-2-1.53-3.47-1.42-1.48.11-2.63.16-3.48.16h-3.16c-1.69-1.37-3.27-2.68-4.74-3.95-1.26-1.16-2.55-2.26-3.87-3.32-1.32-1.05-2.4-2-3.24-2.84-1.16-.74-2.21-1.76-3.16-3.08-.95-1.32-1.87-2.66-2.76-4.03-.9-1.37-1.76-2.69-2.61-3.95-.84-1.26-1.63-2.26-2.37-3-.42-.32-1.05-.81-1.9-1.5-.84-.68-1.74-1.5-2.68-2.45-.95-.95-1.92-1.97-2.92-3.08-1-1.11-1.87-2.29-2.61-3.55-.74-1.37-1.37-2.37-1.9-3-.53-.63-.79-1.37-.79-2.21,0-.63.42-1.63,1.26-3,.84-1.37,1.87-2.84,3.08-4.42,1.21-1.58,2.53-3.21,3.95-4.9,1.42-1.68,2.76-3.16,4.03-4.42.84-.84,2.08-1.76,3.71-2.76,1.63-1,2.87-1.82,3.71-2.45h3.55c2.05,0,4.21-.18,6.48-.55,2.26-.37,4.32-1,6.16-1.9,1.84-.89,2.76-2.29,2.76-4.19,0-1.58-.77-3.21-2.29-4.9-1.53-1.68-3.4-2.53-5.61-2.53h-13.27c-1.26,0-2.08.21-2.45.63-.37.42-.97.63-1.82.63h-1.9c-1.05,0-2.32.79-3.79,2.37-1.48,1.58-2.95,3.74-4.42,6.48-1.16,1.79-2.27,3.71-3.32,5.76-1.05,2.05-2.16,4.08-3.32,6.08-2.32,4.42-4.37,7.79-6.16,10.11-.53.63-.97,1.16-1.34,1.58-.37.42-.82.63-1.34.63-.32,0-.63-.16-.95-.47-.32-.32-.58-.68-.79-1.11-.32-.42-.58-.95-.79-1.58v-1.26c-.32-1.47-.63-2.84-.95-4.11-.53-2.42-.79-4.16-.79-5.21v-3c0-1.05.24-2.13.71-3.24.47-1.11,1.11-2.05,1.9-2.84.79-.79,1.63-1.45,2.53-1.97.89-.53,1.82-.79,2.76-.79.42,0,.66-.26.71-.79.05-.53.08-1.11.08-1.74,0-1.79-.84-3.05-2.53-3.79-1.69-.74-3.16-1.11-4.42-1.11l-6.16,1.26h-4.42c-.42,0-1.05-.05-1.9-.16-.84-.1-1.71-.24-2.61-.39-.9-.16-1.76-.32-2.61-.47-.84-.16-1.42-.24-1.74-.24h-4.26c-.84,0-1.79.08-2.84.24-1.05.16-2.05.47-3,.95-.95.47-1.76,1.11-2.45,1.9-.69.79-1.03,1.82-1.03,3.08,0,1.9.84,3.08,2.53,3.55,1.68.47,3.55.97,5.61,1.5,2.05.53,3.92,1.42,5.61,2.68,1.68,1.26,2.53,3.53,2.53,6.79,0,.53-.05,1.26-.16,2.21-.11.95-.26,1.95-.47,3-.21,1.16-.42,2.48-.63,3.95v7.42c.63.74,1,1.76,1.11,3.08.1,1.32.16,2.66.16,4.03v9.16c0,1.37-.13,2.98-.39,4.82-.26,1.84-.13,3.77.39,5.76.42,1.16.53,2.42.32,3.79-.11.63-.21,1.26-.32,1.9v3c0,.74-.05,1.45-.16,2.13-.11.69-.47,1.03-1.11,1.03h-5.69l-4.9,1.26h-1.26c-.84,0-1.69.42-2.53,1.26-.84.84-1.66,1.82-2.45,2.92-.2.28-.39.55-.56.83-.65-.26-1.19-.47-1.57-.59-1.69-.32-3.16-.97-4.42-1.97-1.26-1-2.45-2.13-3.55-3.4-1.11-1.26-2.16-2.53-3.16-3.79-1-1.26-2.13-2.31-3.4-3.16-.63-.32-1.45-1.21-2.45-2.68-1-1.47-1.97-3.16-2.92-5.05-.95-1.9-1.74-3.79-2.37-5.69-.63-1.9-.95-3.42-.95-4.58,0-1.05.24-1.9.71-2.53.47-.63,1.03-1.13,1.66-1.5.63-.37,1.29-.76,1.97-1.18.68-.42,1.24-1,1.66-1.74.63-1.05,1.39-2.39,2.29-4.03.89-1.63,1.74-3.34,2.53-5.13.79-1.79,1.45-3.58,1.97-5.37.53-1.79.79-3.42.79-4.9,0-.32-.11-1-.32-2.05-.21-1.05-.47-2.18-.79-3.4-.32-1.21-.69-2.26-1.11-3.16-.42-.89-.84-1.34-1.26-1.34-.21-1.16-.63-2.16-1.26-3-.63-.84-1.26-1.63-1.9-2.37-1.79-1.26-3.11-3.16-3.95-5.69-1.48-1.37-3.13-2.87-4.98-4.5-1.84-1.63-3.82-2.45-5.92-2.45h-6.16c-1.16.21-2.27.42-3.32.63-.84.21-1.69.37-2.53.47-.84.11-1.42.16-1.74.16h-16.27l-26.69,1.26c-.84.32-1.58.69-2.21,1.11-.53.32-1.03.66-1.5,1.03-.47.37-.71.71-.71,1.03,0,1.58.32,2.84.95,3.79.63.95,1.45,1.69,2.45,2.21,1,.53,2.08.9,3.24,1.11,1.16.21,2.31.32,3.47.32h6.16c1.37.32,2.39,1,3.08,2.05.68,1.05,1.16,2.24,1.42,3.55.26,1.32.45,2.71.55,4.19.1,1.48.32,2.74.63,3.79l-1.26,11.37v42.17c0,1.37-.71,2.66-2.13,3.87-1.42,1.21-3.19,1.82-5.29,1.82h-3.16c-.84-.1-1.63-.21-2.37-.32-.63-.1-1.26-.21-1.9-.32-.63-.1-1.11-.16-1.42-.16-.63.32-1.16.69-1.58,1.11-.42.32-.79.63-1.11.95-.32.32-.47.63-.47.95,0,1.16.79,2.08,2.37,2.76,1.58.68,3.34,1.21,5.29,1.58,1.95.37,3.79.63,5.53.79,1.74.16,2.76.24,3.08.24h19.74l8.85,1.26h5.69c.63,0,1.32-.26,2.05-.79.74-.53,1.11-1.16,1.11-1.9,0-1.58-.82-2.76-2.45-3.55-1.63-.79-3.4-1.6-5.29-2.45-1.9-.84-3.66-1.9-5.29-3.16-1.63-1.26-2.45-3.16-2.45-5.69v-3.16l-1.74-7.42c0-.74.05-1.68.16-2.84.1-1.16.34-2.26.71-3.32.37-1.05.89-1.97,1.58-2.76.68-.79,1.66-1.18,2.92-1.18,1.47,0,2.55.37,3.24,1.11.68.74,1.76,1.53,3.24,2.37.74.63,1.42,1.5,2.05,2.61.63,1.11,1.29,2.32,1.97,3.63.68,1.32,1.47,2.71,2.37,4.19.89,1.48,1.97,3,3.24,4.58.95.95,1.97,2,3.08,3.16,1.11,1.16,2.21,2.27,3.32,3.32,1.11,1.05,2.13,1.97,3.08,2.76.95.79,1.74,1.34,2.37,1.66,1.58.95,2.95,1.95,4.11,3,1.16,1.05,3.16,2.42,6,4.11.74.21,1.71.32,2.92.32s2.18.32,2.92.95c.21.1.89.18,2.05.24,1.16.05,2.45,0,3.87-.16,1.27-.14,2.44-.44,3.54-.87h1.43c1.05,0,2.55-.19,4.5-.55,1.95-.37,3.87-.79,5.76-1.26,1.9-.47,3.63-.89,5.21-1.26,1.58-.37,2.58-.55,3-.55h4.42c.42.53,1,.95,1.74,1.26.74.32,1.47.58,2.21.79.84.32,1.74.53,2.68.63h7.9c.42,0,.71-.13.87-.39.16-.26.55-.39,1.18-.39l2.21.79c.21,0,.71-.11,1.5-.32.79-.21,1.6-.58,2.45-1.11.84-.53,1.58-1.21,2.21-2.05.63-.84.95-1.9.95-3.16,0-1.05-.84-1.76-2.53-2.13-1.69-.37-3.55-.87-5.61-1.5-2.05-.63-3.92-1.63-5.61-3-1.69-1.37-2.53-3.53-2.53-6.48v-4.42l-1.26-3v-3.16c0-1.26-.29-2.87-.87-4.82-.58-1.95-.87-3.82-.87-5.61,0-.53.34-1.11,1.03-1.74.68-.63,1.34-.95,1.97-.95,1.37,0,2.84.58,4.42,1.74,1.47,1.37,3,3.24,4.58,5.61s3.1,4.87,4.58,7.5c2.21,3.06,4.71,6.29,7.5,9.71,2.79,3.42,5.29,6.35,7.5,8.77,1.16,1.58,2.34,2.95,3.55,4.11,1.21,1.16,2.5,2,3.87,2.53l3,1.74c1.47.63,2.66,1.16,3.55,1.58.89.42,1.76.74,2.61.95.84.21,1.79.34,2.84.39,1.05.05,2.47.08,4.26.08,3.68-.11,6.24-.82,7.66-2.13,1.42-1.32,2.16-2.79,2.21-4.42.05-1.63-.29-3.26-1.03-4.9ZM183.32,306.64c-.32,1.32-.77,2.69-1.34,4.11-.58,1.42-1.34,2.69-2.29,3.79-.95,1.11-2.11,1.66-3.47,1.66l-3.16-1.26c-.53,0-1.13.16-1.82.47-.69.32-1.45.63-2.29.95-.95.42-1.9.84-2.84,1.26-.74,0-1.66-.18-2.76-.55-1.11-.37-2.13-.89-3.08-1.58-.95-.68-1.69-1.47-2.21-2.37-.53-.89-.63-1.87-.32-2.92,0-.53-.05-.87-.16-1.03-.11-.16-.26-.34-.47-.55l-.63-.32c0-.63.21-1.29.63-1.97.42-.68.63-1.45.63-2.29v-11.53c0-1.47.34-2.55,1.03-3.24.68-.68,1.39-1.03,2.13-1.03.74-.53,1.42-.87,2.05-1.03.63-.16,1.21-.34,1.74-.55.53-.1,1-.21,1.42-.32.63,0,1.66.16,3.08.47s2.84.69,4.26,1.11c1.42.42,2.74.79,3.95,1.11,1.21.32,1.97.47,2.29.47.84.63,1.34,1.58,1.5,2.84.16,1.26.24,2.21.24,2.84.84.84,1.34,1.61,1.5,2.29.16.69.24,1.4.24,2.13l.95,4.42c-.21.42-.47,1.29-.79,2.61Z"/></svg>